<?xml version="1.0" standalone="no"?>
<!DOCTYPE svg PUBLIC "-//W3C//DTD SVG 20010904//EN"
 "http://www.w3.org/TR/2001/REC-SVG-20010904/DTD/svg10.dtd">
<svg version="1.0" xmlns="http://www.w3.org/2000/svg"
 width="1024.000000pt" height="1024.000000pt" viewBox="0 0 1024.000000 1024.000000"
 preserveAspectRatio="xMidYMid meet">

<g transform="translate(0.000000,1024.000000) scale(0.100000,-0.100000)"
fill="#000000" stroke="none">
<path d="M4665 8844 c-454 -46 -792 -156 -1168 -378 -708 -418 -1285 -1215
-1502 -2074 -60 -241 -79 -382 -51 -382 8 0 49 51 92 113 226 331 452 606 714
868 359 360 692 607 1070 795 275 137 525 216 789 249 182 23 460 17 614 -14
470 -95 838 -367 1068 -789 34 -62 59 -115 57 -117 -3 -3 -22 10 -44 29 -183
157 -459 302 -702 370 -243 69 -557 92 -816 62 -731 -85 -1373 -473 -1966
-1186 -384 -461 -653 -966 -780 -1465 -245 -960 28 -1999 704 -2679 346 -348
807 -610 1306 -742 908 -239 1846 -93 2685 420 615 376 1184 993 1538 1666
225 426 330 802 356 1270 42 751 -200 1505 -661 2057 -107 128 -140 133 -93
13 34 -86 78 -241 105 -365 103 -482 70 -1030 -92 -1535 -188 -585 -584 -1151
-1073 -1533 -280 -218 -639 -395 -965 -476 -396 -98 -820 -93 -1160 15 -407
128 -734 415 -855 749 -10 28 -23 56 -28 63 -6 7 -6 12 0 12 6 0 22 -17 37
-39 37 -52 156 -167 235 -225 153 -112 438 -226 669 -268 156 -28 459 -30 607
-5 226 40 408 98 599 194 674 338 1157 1004 1351 1866 70 310 94 564 76 816
-41 559 -197 1035 -480 1461 -124 187 -202 283 -360 440 -221 221 -429 370
-696 501 -241 118 -477 190 -735 225 -108 14 -374 25 -445 18z m485 -2122
c413 -96 726 -350 920 -747 126 -259 180 -517 166 -800 -18 -381 -156 -703
-411 -960 -185 -186 -399 -302 -639 -344 -138 -25 -362 -9 -491 34 -321 107
-549 395 -573 723 -18 253 38 458 175 629 145 182 328 271 533 260 151 -7 254
-57 326 -158 32 -43 64 -132 53 -144 -3 -3 -20 0 -38 6 -19 7 -74 10 -134 7
-89 -3 -111 -8 -170 -35 -163 -77 -267 -246 -267 -433 1 -230 147 -402 387
-456 194 -43 396 22 561 181 200 191 313 456 315 740 2 299 -110 575 -317 780
-232 230 -556 326 -901 267 -193 -33 -342 -97 -542 -231 -203 -137 -392 -320
-556 -539 -304 -409 -454 -849 -434 -1277 29 -586 324 -1087 841 -1424 331
-215 816 -387 1273 -451 82 -12 153 -22 158 -24 6 -1 -39 -19 -100 -39 -208
-69 -417 -101 -660 -100 -349 1 -673 79 -978 235 -368 188 -654 481 -837 853
-149 305 -215 578 -227 940 -25 755 302 1461 922 1992 300 258 693 457 1010
513 161 28 164 28 365 25 139 -3 206 -8 270 -23z"/>
</g>
</svg>
